<svg xmlns="http://www.w3.org/2000/svg" version="1.1" xmlns:xlink="http://www.w3.org/1999/xlink" xmlns:svgjs="http://svgjs.dev/svgjs" width="2000" height="1005" viewBox="0 0 2000 1005"><g transform="matrix(1,0,0,1,-1.2121212121212466,-1.478974055092067)"><svg viewBox="0 0 396 199" data-background-color="#191552" preserveAspectRatio="xMidYMid meet" height="1005" width="2000" xmlns="http://www.w3.org/2000/svg" xmlns:xlink="http://www.w3.org/1999/xlink"><g id="tight-bounds" transform="matrix(1,0,0,1,0.2400000000000091,0.2928515790679853)"><svg viewBox="0 0 395.52 198.41429684186403" height="198.41429684186403" width="395.52"><g><svg viewBox="0 0 395.52 198.41429684186403" height="198.41429684186403" width="395.52"><g transform="matrix(1,0,0,1,0,102.04602694582276)"><svg viewBox="0 0 395.52 96.36826989604127" height="96.36826989604127" width="395.52"><g id="textblocktransform"><svg viewBox="0 0 395.52 96.36826989604127" height="96.36826989604127" width="395.52" id="textblock"><g><svg viewBox="0 0 395.52 96.36826989604127" height="96.36826989604127" width="395.52"><g transform="matrix(1,0,0,1,0,0)"><svg width="395.52" viewBox="5.121700000000002 -21.366229999999998 199.23135999999997 48.542640000000006" height="96.36826989604127" data-palette-color="url(#3ea6d77e-6ab5-4963-ba31-bcd2853ed811)"></svg></g></svg></g></svg></g></svg></g><g transform="matrix(1,0,0,1,169.8042169330961,0)"><svg viewBox="0 0 55.91156613380783 96.36826989604127" height="96.36826989604127" width="55.91156613380783"><g><svg xmlns="http://www.w3.org/2000/svg" xmlns:xlink="http://www.w3.org/1999/xlink" version="1.1" x="0" y="0" viewBox="21.679106830508616 1 56.85827385947762 98" enable-background="new 0 0 100 100" xml:space="preserve" height="96.36826989604127" width="55.91156613380783" class="icon-icon-0" data-fill-palette-color="accent" id="icon-0"></svg></g></svg></g><g></g></svg></g><defs></defs><mask id="8360f854-0c0e-4de1-95e0-7baae41aa33f"><g id="SvgjsG3973"><svg viewBox="0 0 395.52 198.41429684186403" height="198.41429684186403" width="395.52"><g><svg viewBox="0 0 395.52 198.41429684186403" height="198.41429684186403" width="395.52"><g transform="matrix(1,0,0,1,0,102.04602694582276)"><svg viewBox="0 0 395.52 96.36826989604127" height="96.36826989604127" width="395.52"><g id="SvgjsG3972"><svg viewBox="0 0 395.52 96.36826989604127" height="96.36826989604127" width="395.52" id="SvgjsSvg3971"><g><svg viewBox="0 0 395.52 96.36826989604127" height="96.36826989604127" width="395.52"><g transform="matrix(1,0,0,1,0,0)"><svg width="395.52" viewBox="5.121700000000002 -21.366229999999998 199.23135999999997 48.542640000000006" height="96.36826989604127" data-palette-color="url(#3ea6d77e-6ab5-4963-ba31-bcd2853ed811)"><path d="M33.906-14.598l-0.935 3.848-11.767-2.86-7.352 30.25-4.314-1.049 7.351-30.25-11.767-2.859 0.935-3.848zM60.612-10.405l4.395 0.702-5.536 34.651-4.394-0.702 2.518-15.76-19.079-3.048-2.517 15.76-4.395-0.702 5.536-34.65 4.394 0.702-2.394 14.989 19.078 3.048zM65.472 25.373l16.306-34.237 3.754 0.209 12.36 35.831-4.733-0.263-3.573-10.494-14.707-0.818-4.664 10.036zM75.96 12.196l12.83 0.713-5.42-16.536zM108.072 26.953l-4.448 0.114-0.902-35.078 15.015-0.386c1.553-0.04 2.977 0.247 4.274 0.86 1.303 0.607 2.444 1.434 3.424 2.483 0.987 1.042 1.761 2.222 2.322 3.542 0.561 1.326 0.859 2.679 0.895 4.058v0c0.041 1.613-0.226 3.154-0.802 4.622-0.569 1.462-1.394 2.717-2.474 3.765-1.073 1.055-2.348 1.798-3.824 2.229v0l8.843 13.217-5.038 0.129-8.321-12.39-9.287 0.239zM107.272-4.167l0.375 14.575 10.617-0.273c1.22-0.031 2.274-0.399 3.162-1.101 0.889-0.696 1.572-1.611 2.05-2.744 0.484-1.133 0.71-2.342 0.677-3.628v0c-0.034-1.313-0.361-2.515-0.983-3.606-0.622-1.091-1.417-1.951-2.387-2.58-0.97-0.635-2.031-0.938-3.184-0.908v0zM151.609 24.099v0c-2.781 0.324-5.178 0.114-7.191-0.631-2.007-0.746-3.679-1.877-5.017-3.392-1.339-1.522-2.391-3.299-3.158-5.331-0.767-2.032-1.281-4.163-1.541-6.394v0l-2.054-17.621 4.411-0.514 2.053 17.621c0.198 1.702 0.564 3.344 1.098 4.926 0.533 1.582 1.268 2.963 2.204 4.142 0.93 1.187 2.112 2.08 3.544 2.678 1.431 0.592 3.144 0.771 5.137 0.539v0c2.026-0.236 3.667-0.817 4.922-1.741 1.255-0.925 2.197-2.078 2.828-3.461 0.637-1.383 1.035-2.896 1.193-4.539 0.157-1.649 0.138-3.308-0.057-4.977v0l-2.054-17.62 4.41-0.514 2.054 17.62c0.275 2.357 0.267 4.623-0.023 6.799-0.297 2.176-0.941 4.133-1.933 5.873-0.992 1.74-2.374 3.186-4.145 4.339-1.772 1.153-3.999 1.886-6.681 2.198zM200.396 14.77l-26.393-21.754 5.729 26.262-4.348 0.949-7.478-34.284 3.673-0.802 26.794 22.231-5.836-26.751 4.348-0.949 7.468 34.235z" opacity="1" transform="matrix(1,0,0,1,0,0)" fill="white" class="wordmark-text-0" id="SvgjsPath3970"></path></svg></g></svg></g></svg></g></svg></g><g transform="matrix(1,0,0,1,169.8042169330961,0)"><svg viewBox="0 0 55.91156613380783 96.36826989604127" height="96.36826989604127" width="55.91156613380783"><g><svg xmlns="http://www.w3.org/2000/svg" xmlns:xlink="http://www.w3.org/1999/xlink" version="1.1" x="0" y="0" viewBox="21.679106830508616 1 56.85827385947762 98" enable-background="new 0 0 100 100" xml:space="preserve" height="96.36826989604127" width="55.91156613380783" class="icon-icon-0" data-fill-palette-color="accent" id="SvgjsSvg3969"><g fill="black"><path fill-rule="evenodd" clip-rule="evenodd" d="M30.545 28.822C29.38 36.039 30.875 43.672 37.045 47.863 30.758 19.81 45.756 8.664 59.646 1 43.466 24.046 76.542 24.644 78.423 51.13 80.028 73.71 64.507 91.317 46.639 99 46.845 76.175 24.089 73.067 21.801 54.397 20.905 47.094 25.062 33.766 30.545 28.822" fill="black"></path></g></svg></g></svg></g><g></g></svg></g><defs><mask></mask></defs></svg><rect width="395.52" height="198.41429684186403" fill="black" stroke="none" visibility="hidden"></rect></g></mask><linearGradient x1="0" x2="1" y1="0.578" y2="0.595" id="3ea6d77e-6ab5-4963-ba31-bcd2853ed811"><stop stop-color="#6ee2f5" offset="0"></stop><stop stop-color="#6454f0" offset="1"></stop></linearGradient><rect width="395.52" height="198.41429684186403" fill="url(#3ea6d77e-6ab5-4963-ba31-bcd2853ed811)" mask="url(#8360f854-0c0e-4de1-95e0-7baae41aa33f)" data-fill-palette-color="primary"></rect><mask id="09910b8b-f70d-4909-88c4-2827cd850f33"><g id="SvgjsG3982"><svg viewBox="0 0 395.52 198.41429684186403" height="198.41429684186403" width="395.52"><g><svg viewBox="0 0 395.52 198.41429684186403" height="198.41429684186403" width="395.52"><g transform="matrix(1,0,0,1,0,102.04602694582276)"><svg viewBox="0 0 395.52 96.36826989604127" height="96.36826989604127" width="395.52"><g id="SvgjsG3981"><svg viewBox="0 0 395.52 96.36826989604127" height="96.36826989604127" width="395.52" id="SvgjsSvg3980"><g><svg viewBox="0 0 395.52 96.36826989604127" height="96.36826989604127" width="395.52"><g transform="matrix(1,0,0,1,0,0)"><svg width="395.52" viewBox="5.121700000000002 -21.366229999999998 199.23135999999997 48.542640000000006" height="96.36826989604127" data-palette-color="url(#3ea6d77e-6ab5-4963-ba31-bcd2853ed811)"></svg></g></svg></g></svg></g></svg></g><g transform="matrix(1,0,0,1,169.8042169330961,0)"><svg viewBox="0 0 55.91156613380783 96.36826989604127" height="96.36826989604127" width="55.91156613380783"><g><svg xmlns="http://www.w3.org/2000/svg" xmlns:xlink="http://www.w3.org/1999/xlink" version="1.1" x="0" y="0" viewBox="21.679106830508616 1 56.85827385947762 98" enable-background="new 0 0 100 100" xml:space="preserve" height="96.36826989604127" width="55.91156613380783" class="icon-icon-0" data-fill-palette-color="accent" id="SvgjsSvg3979"><g fill="white"><path fill-rule="evenodd" clip-rule="evenodd" d="M30.545 28.822C29.38 36.039 30.875 43.672 37.045 47.863 30.758 19.81 45.756 8.664 59.646 1 43.466 24.046 76.542 24.644 78.423 51.13 80.028 73.71 64.507 91.317 46.639 99 46.845 76.175 24.089 73.067 21.801 54.397 20.905 47.094 25.062 33.766 30.545 28.822" fill="white"></path></g></svg></g></svg></g><g></g></svg></g><defs><mask></mask></defs><mask><g id="SvgjsG3978"><svg viewBox="0 0 395.52 198.41429684186403" height="198.41429684186403" width="395.52"><g><svg viewBox="0 0 395.52 198.41429684186403" height="198.41429684186403" width="395.52"><g transform="matrix(1,0,0,1,0,102.04602694582276)"><svg viewBox="0 0 395.52 96.36826989604127" height="96.36826989604127" width="395.52"><g id="SvgjsG3977"><svg viewBox="0 0 395.52 96.36826989604127" height="96.36826989604127" width="395.52" id="SvgjsSvg3976"><g><svg viewBox="0 0 395.52 96.36826989604127" height="96.36826989604127" width="395.52"><g transform="matrix(1,0,0,1,0,0)"><svg width="395.52" viewBox="5.121700000000002 -21.366229999999998 199.23135999999997 48.542640000000006" height="96.36826989604127" data-palette-color="url(#3ea6d77e-6ab5-4963-ba31-bcd2853ed811)"><path d="M33.906-14.598l-0.935 3.848-11.767-2.86-7.352 30.25-4.314-1.049 7.351-30.25-11.767-2.859 0.935-3.848zM60.612-10.405l4.395 0.702-5.536 34.651-4.394-0.702 2.518-15.76-19.079-3.048-2.517 15.76-4.395-0.702 5.536-34.65 4.394 0.702-2.394 14.989 19.078 3.048zM65.472 25.373l16.306-34.237 3.754 0.209 12.36 35.831-4.733-0.263-3.573-10.494-14.707-0.818-4.664 10.036zM75.96 12.196l12.83 0.713-5.42-16.536zM108.072 26.953l-4.448 0.114-0.902-35.078 15.015-0.386c1.553-0.04 2.977 0.247 4.274 0.86 1.303 0.607 2.444 1.434 3.424 2.483 0.987 1.042 1.761 2.222 2.322 3.542 0.561 1.326 0.859 2.679 0.895 4.058v0c0.041 1.613-0.226 3.154-0.802 4.622-0.569 1.462-1.394 2.717-2.474 3.765-1.073 1.055-2.348 1.798-3.824 2.229v0l8.843 13.217-5.038 0.129-8.321-12.39-9.287 0.239zM107.272-4.167l0.375 14.575 10.617-0.273c1.22-0.031 2.274-0.399 3.162-1.101 0.889-0.696 1.572-1.611 2.05-2.744 0.484-1.133 0.71-2.342 0.677-3.628v0c-0.034-1.313-0.361-2.515-0.983-3.606-0.622-1.091-1.417-1.951-2.387-2.58-0.97-0.635-2.031-0.938-3.184-0.908v0zM151.609 24.099v0c-2.781 0.324-5.178 0.114-7.191-0.631-2.007-0.746-3.679-1.877-5.017-3.392-1.339-1.522-2.391-3.299-3.158-5.331-0.767-2.032-1.281-4.163-1.541-6.394v0l-2.054-17.621 4.411-0.514 2.053 17.621c0.198 1.702 0.564 3.344 1.098 4.926 0.533 1.582 1.268 2.963 2.204 4.142 0.93 1.187 2.112 2.08 3.544 2.678 1.431 0.592 3.144 0.771 5.137 0.539v0c2.026-0.236 3.667-0.817 4.922-1.741 1.255-0.925 2.197-2.078 2.828-3.461 0.637-1.383 1.035-2.896 1.193-4.539 0.157-1.649 0.138-3.308-0.057-4.977v0l-2.054-17.62 4.41-0.514 2.054 17.62c0.275 2.357 0.267 4.623-0.023 6.799-0.297 2.176-0.941 4.133-1.933 5.873-0.992 1.74-2.374 3.186-4.145 4.339-1.772 1.153-3.999 1.886-6.681 2.198zM200.396 14.77l-26.393-21.754 5.729 26.262-4.348 0.949-7.478-34.284 3.673-0.802 26.794 22.231-5.836-26.751 4.348-0.949 7.468 34.235z" opacity="1" transform="matrix(1,0,0,1,0,0)" fill="black" class="wordmark-text-0" id="SvgjsPath3975"></path></svg></g></svg></g></svg></g></svg></g><g transform="matrix(1,0,0,1,169.8042169330961,0)"><svg viewBox="0 0 55.91156613380783 96.36826989604127" height="96.36826989604127" width="55.91156613380783"><g><svg xmlns="http://www.w3.org/2000/svg" xmlns:xlink="http://www.w3.org/1999/xlink" version="1.1" x="0" y="0" viewBox="21.679106830508616 1 56.85827385947762 98" enable-background="new 0 0 100 100" xml:space="preserve" height="96.36826989604127" width="55.91156613380783" class="icon-icon-0" data-fill-palette-color="accent" id="SvgjsSvg3974"><g fill="black"><path fill-rule="evenodd" clip-rule="evenodd" d="M30.545 28.822C29.38 36.039 30.875 43.672 37.045 47.863 30.758 19.81 45.756 8.664 59.646 1 43.466 24.046 76.542 24.644 78.423 51.13 80.028 73.71 64.507 91.317 46.639 99 46.845 76.175 24.089 73.067 21.801 54.397 20.905 47.094 25.062 33.766 30.545 28.822" fill="black"></path></g></svg></g></svg></g><g></g></svg></g><defs><mask></mask></defs></svg><rect width="395.52" height="198.41429684186403" fill="black" stroke="none" visibility="hidden"></rect></g></mask></svg><rect width="395.52" height="198.41429684186403" fill="black" stroke="none" visibility="hidden"></rect></g></mask><linearGradient x1="0" x2="1" y1="0.578" y2="0.595" id="231904ae-e951-48e0-aefe-28ebf7f4056f"><stop stop-color="#6ee2f5" offset="0"></stop><stop stop-color="#6454f0" offset="1"></stop></linearGradient><rect width="395.52" height="198.41429684186403" fill="url(#231904ae-e951-48e0-aefe-28ebf7f4056f)" mask="url(#09910b8b-f70d-4909-88c4-2827cd850f33)" data-fill-palette-color="accent"></rect></svg><rect width="395.52" height="198.41429684186403" fill="none" stroke="none" visibility="hidden"></rect></g></svg></g></svg>